<?xml version="1.0" standalone="no"?>
<!DOCTYPE svg PUBLIC "-//W3C//DTD SVG 20010904//EN"
 "http://www.w3.org/TR/2001/REC-SVG-20010904/DTD/svg10.dtd">
<svg version="1.0" xmlns="http://www.w3.org/2000/svg"
 width="256.000000pt" height="256.000000pt" viewBox="0 0 256.000000 256.000000"
 preserveAspectRatio="xMidYMid meet">

<g transform="translate(0.000000,256.000000) scale(0.100000,-0.100000)"
fill="#000000" stroke="none">
<path d="M883 2550 c-334 -47 -621 -254 -772 -556 -192 -386 -124 -842 172
-1151 315 -328 795 -412 1196 -209 l86 44 338 -336 337 -337 157 158 158 157
-338 338 -338 339 35 65 c78 140 118 300 119 468 1 139 -15 235 -58 357 -62
175 -191 348 -344 465 -93 70 -248 144 -365 173 -111 28 -283 39 -383 25z
m297 -372 c90 -21 207 -86 280 -154 86 -81 133 -152 171 -255 50 -136 55 -285
15 -424 -45 -156 -177 -310 -326 -383 -115 -56 -185 -73 -305 -73 -189 0 -321
55 -455 190 -135 136 -193 276 -193 466 0 116 18 197 68 294 137 269 447 410
745 339z"/>
</g>
</svg>
